<svg width="680" height="220" viewBox="0 0 680 220" role="img" xmlns="http://www.w3.org/2000/svg">
  <title>PTT-Radio — open-source push-to-talk over WebRTC</title>
  <desc>Dark industrial banner showing the PTT-Radio logo, tagline, and a signal waveform pattern</desc>

  <defs>
    <pattern id="grid" x="0" y="0" width="40" height="40" patternUnits="userSpaceOnUse">
      <path d="M40 0 L0 0 L0 40" fill="none" stroke="#1a2e1a" stroke-width="0.5"/>
    </pattern>
    <style>
      .mono { font-family: 'IBM Plex Mono', 'Courier New', monospace; }
    </style>
  </defs>

  <!-- Background -->
  <rect width="680" height="220" fill="#070e07" rx="10"/>

  <!-- Grid texture -->
  <rect width="680" height="220" fill="url(#grid)" rx="10" opacity="0.6"/>

  <!-- Left accent bar -->
  <rect x="0" y="0" width="4" height="220" fill="#22c55e" rx="2"/>

  <!-- ── Waveform — right panel ───────────────────────────────────────────────── -->

  <!-- Idle baseline — left of burst -->
  <line x1="440" y1="110" x2="480" y2="110" stroke="#1a3a1a" stroke-width="1.5" stroke-linecap="round"/>

  <!-- Opus audio burst waveform -->
  <polyline
    points="480,110 492,110 497,68 502,152 507,80 512,140 517,95 522,125 527,110 540,110 548,110 556,88 562,132 568,98 574,122 578,110 600,110"
    fill="none" stroke="#22c55e" stroke-width="2" stroke-linecap="round" stroke-linejoin="round"/>

  <!-- Idle baseline — right of burst -->
  <line x1="600" y1="110" x2="660" y2="110" stroke="#1a3a1a" stroke-width="1.5" stroke-linecap="round"/>

  <!-- TX badge -->
  <rect x="596" y="48" width="32" height="15" fill="#22c55e" rx="2"/>
  <text x="612" y="59" text-anchor="middle" class="mono" font-size="9" font-weight="600"
        fill="#052e16" letter-spacing="1">TX</text>

  <!-- Time tick marks -->
  <line x1="480" y1="118" x2="480" y2="122" stroke="#1a3a1a" stroke-width="1"/>
  <line x1="540" y1="118" x2="540" y2="122" stroke="#1a3a1a" stroke-width="1"/>
  <line x1="600" y1="118" x2="600" y2="122" stroke="#1a3a1a" stroke-width="1"/>
  <text x="480" y="132" text-anchor="middle" class="mono" font-size="9" fill="#1a3a1a">0ms</text>
  <text x="540" y="132" text-anchor="middle" class="mono" font-size="9" fill="#1a3a1a">20ms</text>
  <text x="600" y="132" text-anchor="middle" class="mono" font-size="9" fill="#1a3a1a">40ms</text>

  <!-- ── Radio icon ───────────────────────────────────────────────────────────── -->

  <!-- Chassis body -->
  <rect x="48" y="72" width="54" height="38" rx="4" fill="none" stroke="#22c55e" stroke-width="1.5"/>

  <!-- Speaker grille -->
  <circle cx="60" cy="84" r="2"   fill="#22c55e"/>
  <circle cx="60" cy="91" r="2"   fill="#22c55e"/>
  <circle cx="60" cy="98" r="2"   fill="#22c55e"/>

  <!-- LCD slot -->
  <rect x="70" y="80" width="24" height="8" rx="1" fill="#22c55e" opacity="0.15"/>
  <rect x="70" y="80" width="24" height="8" rx="1" fill="none" stroke="#22c55e" stroke-width="0.75"/>

  <!-- Channel readout lines -->
  <line x1="70" y1="96" x2="82" y2="96" stroke="#22c55e" stroke-width="1"   stroke-linecap="round"/>
  <line x1="70" y1="100" x2="78" y2="100" stroke="#22c55e" stroke-width="1" stroke-linecap="round"/>

  <!-- Antenna mast -->
  <line x1="84" y1="72" x2="84" y2="54" stroke="#22c55e" stroke-width="1.5" stroke-linecap="round"/>
  <circle cx="84" cy="51" r="2.5" fill="#22c55e"/>

  <!-- Signal arcs -->
  <path d="M91 65 Q97 60 91 55" fill="none" stroke="#22c55e" stroke-width="1.2"
        stroke-linecap="round" opacity="0.5"/>
  <path d="M95 68 Q104 60 95 52" fill="none" stroke="#22c55e" stroke-width="1.2"
        stroke-linecap="round" opacity="0.28"/>

  <!-- ── Logotype ─────────────────────────────────────────────────────────────── -->

  <!-- "PTT" — large -->
  <text x="118" y="108" class="mono" font-size="52" font-weight="600"
        fill="#22c55e" letter-spacing="-1">PTT</text>

  <!-- "RADIO" — lighter, spaced -->
  <text x="118" y="146" class="mono" font-size="28" font-weight="400"
        fill="#4ade80" letter-spacing="8">RADIO</text>

  <!-- Divider rule -->
  <line x1="118" y1="155" x2="420" y2="155" stroke="#1a3a1a" stroke-width="0.75"/>

  <!-- Tagline -->
  <text x="118" y="172" class="mono" font-size="11" fill="#4ade80" opacity="0.48"
        letter-spacing="0.8">Open-source push-to-talk · WebRTC · Opus 48kHz · SRTP</text>

  <!-- ── Mini badge strip ────────────────────────────────────────────────────── -->

  <rect x="118" y="184" width="48" height="16" rx="3" fill="#052e16"/>
  <text x="142" y="195" text-anchor="middle" class="mono" font-size="9"
        fill="#22c55e" letter-spacing="0.5">v1.0.0</text>

  <rect x="172" y="184" width="40" height="16" rx="3" fill="#1a2e1a"/>
  <text x="192" y="195" text-anchor="middle" class="mono" font-size="9"
        fill="#4ade80" letter-spacing="0.5">MIT</text>

  <rect x="218" y="184" width="52" height="16" rx="3" fill="#1a2e1a"/>
  <text x="244" y="195" text-anchor="middle" class="mono" font-size="9"
        fill="#4ade80" letter-spacing="0.5">Node 18+</text>

  <rect x="276" y="184" width="48" height="16" rx="3" fill="#1a2e1a"/>
  <text x="300" y="195" text-anchor="middle" class="mono" font-size="9"
        fill="#4ade80" letter-spacing="0.5">React 18</text>

  <!-- Bottom-right watermark -->
  <text x="656" y="210" text-anchor="end" class="mono" font-size="9"
        fill="#1a3a1a" letter-spacing="1">HALF-DUPLEX</text>

</svg>
